<?xml version="1.0" encoding="UTF-8"?>
<svg width="13px" height="15px" viewBox="0 0 13 15" version="1.1" xmlns="http://www.w3.org/2000/svg" xmlns:xlink="http://www.w3.org/1999/xlink">
    <!-- Generator: Sketch 46.2 (44496) - http://www.bohemiancoding.com/sketch -->
    <title>icon</title>
    <desc>Created with Sketch.</desc>
    <defs></defs>
    <g id="Page-1" stroke="none" stroke-width="1" fill="none" fill-rule="evenodd" fill-opacity="0.6">
        <g id="icon" transform="translate(-1.000000, 0.000000)" fill-rule="nonzero" fill="#F0F5FA">
            <path d="M14,6 C14,5.44771525 13.5522847,5 13,5 L12.5,5 L14,1 L12.82,1 C12.9389974,1.31997491 12.9999524,1.65861413 13,2 L12,1.5 L12,2.5 L13,2.5 C12.86,3.36 12.36,4 11.76,4 C11.2554569,3.93824748 10.8374317,3.57937675 10.7,3.09 C10.8168426,3.00651102 10.8901663,2.87509302 10.8998473,2.73181401 C10.9095283,2.58853499 10.8545495,2.44844791 10.75,2.35 C10.8907237,2.14503774 10.9767756,1.90753444 11,1.66 C11.0558582,1.23790618 10.9284743,0.812079839 10.65,0.49 C10.3073405,0.720273744 10.0755819,1.08239658 10.01,1.49 C9.9786237,1.74116473 10.0130841,1.99617205 10.11,2.23 C9.97371493,2.3017086 9.88011154,2.43445329 9.85833277,2.58690468 C9.836554,2.73935608 9.88924474,2.89299993 10,3 C9.77556589,3.32838883 9.39737153,3.51748601 9,3.5 C8.31,3.5 7.88,2.83 7.88,2 L7.88,2 C8.3075286,1.99943998 8.71498106,2.18133839 9,2.5 L9,1 C8.71679876,1.32237184 8.30909514,1.5080226 7.88,1.51 L7.88,1.51 C7.85316816,0.939741798 8.08017768,0.386863776 8.5,8.8817842e-16 L6.5,8.8817842e-16 C6.92077844,0.382734733 7.15129883,0.931592812 7.13,1.5 L7.13,1.5 C6.69899052,1.50342624 6.28733511,1.32127783 6,1 L6,2.5 C6.28501894,2.18133839 6.6924714,1.99943998 7.12,2 L7.12,2 C7.12,2.83 6.69,3.5 6,3.5 C5.60262847,3.51748601 5.22443411,3.32838883 5,3 C5.11240901,2.89587155 5.16834949,2.74433319 5.15056093,2.59214223 C5.13277238,2.43995127 5.04339267,2.30539838 4.91,2.23 C4.99679371,2.00753783 5.02769656,1.76718234 5,1.53 C4.93441812,1.12239658 4.7026595,0.760273744 4.36,0.53 C4.08880859,0.840625436 3.95846921,1.24974625 4,1.66 C4.03506849,1.91129159 4.13501956,2.14910619 4.29,2.35 C4.18545045,2.44844791 4.13047165,2.58853499 4.14015267,2.73181401 C4.14983368,2.87509302 4.22315742,3.00651102 4.34,3.09 C4.20256831,3.57937675 3.78454306,3.93824748 3.28,4 C2.68,4 2.19,3.36 2,2.5 L3,2.5 L3,1.5 L2,2 C2.00004758,1.65861413 2.06100264,1.31997491 2.18,1 L1,1 L2.5,5 L2,5 C1.54460708,4.99681609 1.14457881,5.30172077 1.02694536,5.74166988 C0.909311904,6.181619 1.10378734,6.64548189 1.5,6.87 L1.5,7.63 C1.18668955,7.80756122 0.993051721,8.13987304 0.993051721,8.5 C0.993051721,8.86012696 1.18668955,9.19243878 1.5,9.37 L1.5,10.13 C1.18668955,10.3075612 0.993051721,10.639873 0.993051721,11 C0.993051721,11.360127 1.18668955,11.6924388 1.5,11.87 L1.5,12.63 C1.10378734,12.8545181 0.909311904,13.318381 1.02694536,13.7583301 C1.14457881,14.1982792 1.54460708,14.5031839 2,14.5 L2,6 L3,6 L3,15 L4,13 L4,12 L5,12 L5,13 L4.75,13 L4.75,13.25 L5.5,15 L6.25,13.25 L6.25,13 L6,13 L6,12 L7,12 L7,13 L6.75,13 L6.75,13.25 L7.5,15 L8.25,13.25 L8.25,13 L8,13 L8,12 L9,12 L9,13 L8.75,13 L8.75,13.25 L9.5,15 L10.25,13.25 L10.25,13 L10,13 L10,12 L11,12 L11,13 L12,15 L12,6 L13,6 L13,14.5 C13.4553929,14.5031839 13.8554212,14.1982792 13.9730546,13.7583301 C14.0906881,13.318381 13.8962127,12.8545181 13.5,12.63 L13.5,11.87 C13.8133105,11.6924388 14.0069483,11.360127 14.0069483,11 C14.0069483,10.639873 13.8133105,10.3075612 13.5,10.13 L13.5,9.37 C13.8133105,9.19243878 14.0069483,8.86012696 14.0069483,8.5 C14.0069483,8.13987304 13.8133105,7.80756122 13.5,7.63 L13.5,6.87 C13.8106342,6.69065903 14.001424,6.35868476 14,6 Z M5,11 L4,11 L4,10 L5,10 L5,11 Z M5,9 L4,9 L4,8 L5,8 L5,9 Z M5,7 L4,7 L4,6 L5,6 L5,7 Z M7,11 L6,11 L6,10 L7,10 L7,11 Z M7,9 L6,9 L6,8 L7,8 L7,9 Z M7,7 L6,7 L6,6 L7,6 L7,7 Z M9,11 L8,11 L8,10 L9,10 L9,11 Z M9,9 L8,9 L8,8 L9,8 L9,9 Z M9,7 L8,7 L8,6 L9,6 L9,7 Z M11,11 L10,11 L10,10 L11,10 L11,11 Z M11,9 L10,9 L10,8 L11,8 L11,9 Z M11,7 L10,7 L10,6 L11,6 L11,7 Z M2.5,5 C4.07435403,4.30778669 5.78051424,3.96655465 7.5,4 C9.21948576,3.96655465 10.925646,4.30778669 12.5,5 L2.5,5 Z" id="Shape"></path>
        </g>
    </g>
</svg>
